<svg xmlns="http://www.w3.org/2000/svg" viewBox="0 0 256 256" width="256" height="256" role="img" aria-labelledby="title-1">
  <title id="title-1">Apex Scan — High-Speed Retail Glyph</title>
  <!-- Upper Blade (Peach Fuzz): Dynamic optical sweep -->
  <path fill="#FFBE98" d="
    M 64 48
    H 168
    C 194.5 48 216 69.5 216 96
    C 216 122.5 194.5 144 168 144
    H 124
    L 156 112
    H 168
    C 176.8 112 184 104.8 184 96
    C 184 87.2 176.8 80 168 80
    H 64
    Z
  "/>
  <!-- Lower Blade (Slate Gray): Grounded terminal base -->
  <path fill="#1E293B" d="
    M 192 208
    H 88
    C 61.5 208 40 186.5 40 160
    C 40 133.5 61.5 112 88 112
    H 132
    L 100 144
    H 88
    C 79.2 144 72 151.2 72 160
    C 72 168.8 79.2 176 88 176
    H 192
    Z
  "/>
  <!-- Center Fast-Scan Accent (Laser Dot) -->
  <circle cx="128" cy="128" r="14" fill="#FFBE98"/>
</svg>
